<svg width="22" height="16" fill="none" xmlns="http://www.w3.org/2000/svg"><path d="M18.875 16H3.125a3.097 3.097 0 01-2.209-.935A3.227 3.227 0 010 12.81V3.19C.001 2.344.33 1.533.916.935A3.097 3.097 0 013.125 0h15.75a3.097 3.097 0 012.209.935c.585.598.915 1.409.916 2.255v9.62a3.227 3.227 0 01-.916 2.255 3.097 3.097 0 01-2.209.935zM3.125 1.126c-.536 0-1.05.217-1.43.604a2.087 2.087 0 00-.592 1.46v9.62c0 .548.213 1.073.592 1.46.38.387.894.604 1.43.604h15.75c.536 0 1.05-.217 1.43-.604.379-.387.592-.912.592-1.46V3.19c0-.548-.213-1.073-.592-1.46a2.001 2.001 0 00-1.43-.604H3.125z" fill="#2969FF"/><path d="M11 10.282a3.087 3.087 0 01-1.886-.642L.529 3.013a.558.558 0 01-.228-.373.574.574 0 01.106-.427.555.555 0 01.374-.22.541.541 0 01.414.123l8.584 6.635a2.013 2.013 0 002.442 0l8.584-6.634a.548.548 0 01.623-.053.554.554 0 01.26.351.573.573 0 01-.217.598L12.886 9.64a3.087 3.087 0 01-1.886.642z" fill="#2969FF"/><path d="M.768 14.432a.544.544 0 01-.313-.1.562.562 0 01-.223-.597.565.565 0 01.169-.287l6.764-6.157a.545.545 0 01.78.045.57.57 0 01-.044.795L1.136 14.29a.53.53 0 01-.368.143zm20.464 0a.53.53 0 01-.368-.143l-6.765-6.158a.568.568 0 01.337-.982.545.545 0 01.399.142l6.76 6.157a.565.565 0 01.149.621.562.562 0 01-.203.264.544.544 0 01-.313.099h.004z" fill="#2969FF"/></svg>