<svg width="18" height="18" fill="none" xmlns="http://www.w3.org/2000/svg"><path d="M17.363 11.221a.871.871 0 00-.6-.399l-5.492-.88a.864.864 0 00-.716.207c-.427.376-.78.83-1.038 1.337a8.023 8.023 0 01-1.702-1.3 8.025 8.025 0 01-1.301-1.703 4.502 4.502 0 001.337-1.04.87.87 0 00.208-.714l-.881-5.492a.87.87 0 00-.399-.601A3.869 3.869 0 005.528.13 4.038 4.038 0 004.485 0 4.49 4.49 0 000 4.485C0 11.938 6.062 18 13.514 18A4.49 4.49 0 0018 13.514a3.9 3.9 0 00-.12-.993c-.094-.46-.269-.9-.517-1.3zm-3.849 5.037c-6.491 0-11.772-5.281-11.772-11.772a2.746 2.746 0 012.743-2.744c.214 0 .413.024.64.084.143.03.276.07.403.12l.74 4.619c-.33.287-.726.487-1.153.583a.871.871 0 00-.614 1.19 9.704 9.704 0 002.082 3.08 9.714 9.714 0 003.079 2.081.873.873 0 001.19-.614c.096-.427.296-.823.583-1.153l4.617.74a2.7 2.7 0 01.133.45c.049.18.073.38.073.593a2.746 2.746 0 01-2.744 2.743z" fill="#2969FF"/></svg>