<svg width="18" height="18" fill="none" xmlns="http://www.w3.org/2000/svg"><path fill-rule="evenodd" clip-rule="evenodd" d="M9.15 4.5c.414 0 .75.318.75.71v4.737c0 .189-.079.37-.22.503l-3 2.842a.78.78 0 01-1.06 0 .684.684 0 010-1.005L8.4 9.653V5.211c0-.393.336-.711.75-.711z" fill="#2969FF"/><path fill-rule="evenodd" clip-rule="evenodd" d="M9 1.385c-1.952 0-4.62.179-6.287.308a1.105 1.105 0 00-1.02 1.02C1.563 4.38 1.385 7.048 1.385 9s.179 4.62.308 6.287c.042.547.473.978 1.02 1.02 1.667.13 4.335.308 6.287.308s4.62-.179 6.287-.308a1.105 1.105 0 001.02-1.02c.13-1.667.308-4.335.308-6.287s-.179-4.62-.308-6.287a1.105 1.105 0 00-1.02-1.02c-1.667-.13-4.335-.308-6.287-.308zM2.607.312C4.273.183 6.989 0 9 0s4.727.183 6.393.312a2.49 2.49 0 012.295 2.295C17.817 4.273 18 6.989 18 9s-.183 4.727-.312 6.393a2.49 2.49 0 01-2.294 2.295C13.726 17.817 11.01 18 9 18s-4.727-.183-6.393-.312a2.49 2.49 0 01-2.295-2.294C.183 13.726 0 11.01 0 9s.183-4.727.312-6.393A2.49 2.49 0 012.607.312z" fill="#2969FF"/></svg>