<svg width="20" height="20" fill="none" xmlns="http://www.w3.org/2000/svg"><path fill-rule="evenodd" clip-rule="evenodd" d="M13.725 7.342a.76.76 0 010 1.093l-4.22 4.123a.805.805 0 01-1.12 0l-2.11-2.062a.76.76 0 010-1.093.805.805 0 011.119 0l1.55 1.515 3.662-3.576a.805.805 0 011.12 0z" fill="#2969FF"/><path fill-rule="evenodd" clip-rule="evenodd" d="M10.397 1.606a1.349 1.349 0 00-.794 0l-7.098 2.19a1.286 1.286 0 00-.902 1.451l1.112 6.175c.408 2.266 1.592 4.297 3.5 5.464.701.429 1.432.829 2.112 1.12.697.297 1.268.448 1.673.448s.976-.15 1.673-.448c.68-.291 1.41-.691 2.112-1.12 1.908-1.167 3.092-3.198 3.5-5.464l1.112-6.175a1.286 1.286 0 00-.902-1.451l-7.098-2.19zM9.127.132a2.967 2.967 0 011.747 0l7.098 2.19c1.387.427 2.236 1.793 1.984 3.193l-1.112 6.175c-.467 2.592-1.848 5.056-4.22 6.507-.736.45-1.54.893-2.317 1.225-.761.325-1.573.578-2.307.578s-1.546-.253-2.307-.578c-.778-.332-1.58-.774-2.318-1.225-2.371-1.451-3.752-3.915-4.219-6.507L.044 5.515c-.252-1.4.597-2.766 1.984-3.194L9.126.131z" fill="#2969FF"/></svg>