<svg width="18" height="20" fill="none" xmlns="http://www.w3.org/2000/svg"><path d="M6.07 12.07a.633.633 0 000 .889.618.618 0 00.881 0l-.88-.89zm5.574-3.852a.633.633 0 000-.889.618.618 0 00-.88 0l.88.889zm-4.693 4.74l4.693-4.74-.88-.889-4.693 4.74.88.89zM3.534 4.76c1.61.408 3.25-.548 3.705-2.16l-1.196-.345A1.829 1.829 0 013.837 3.54l-.303 1.22zm-1.76 3.08c-1.281-1.336-.026-3.532 1.76-3.08l.303-1.219C.836 2.78-1.273 6.468.88 8.714l.894-.875zm0 4.322a3.129 3.129 0 000-4.322l-.894.875a1.863 1.863 0 010 2.572l.894.875zm1.76 3.08c-1.786.452-3.041-1.744-1.76-3.08l-.894-.875c-2.152 2.245-.044 5.934 2.957 5.174l-.303-1.22zM7.24 17.4c-.455-1.612-2.095-2.568-3.705-2.16l.303 1.219a1.829 1.829 0 012.206 1.286L7.24 17.4zm3.522 0c-.506 1.79-3.016 1.79-3.522 0l-1.196.345c.849 3.005 5.065 3.005 5.914 0l-1.197-.345zm3.705-2.16c-1.61-.408-3.25.548-3.705 2.16l1.196.345a1.829 1.829 0 012.206-1.286l.303-1.22zm1.76-3.08c1.281 1.336.026 3.532-1.76 3.08l-.303 1.219c3.001.76 5.11-2.929 2.957-5.174l-.894.875zm0-4.322a3.129 3.129 0 000 4.322l.894-.875a1.863 1.863 0 010-2.572l-.894-.875zm-1.76-3.08c1.786-.452 3.041 1.744 1.76 3.08l.894.875c2.152-2.246.044-5.934-2.957-5.174l.303 1.22zM10.76 2.6c.455 1.612 2.095 2.568 3.705 2.16l-.303-1.219a1.829 1.829 0 01-2.206-1.286l-1.197.345zm1.196-.345c-.849-3.005-5.065-3.005-5.914 0l1.196.345c.506-1.79 3.016-1.79 3.522 0l1.196-.345z" fill="#2969FF"/></svg>