<svg width="16" height="20" fill="none" xmlns="http://www.w3.org/2000/svg"><path d="M11.434 5.067a5.754 5.754 0 01-.026.496c-.018.185.022-.152-.005.03-.033.23-.087.455-.154.676l-.05.15c-.01.029-.073.195-.007.028a4.487 4.487 0 01-.458.86c-.096.143.087-.115-.016.023a4.208 4.208 0 01-.502.558c-.036.035-.073.067-.11.1a4.201 4.201 0 01-.557.374 3.93 3.93 0 01-.265.135c.154-.072 0-.003-.027.009a3.911 3.911 0 01-.768.219c-.17.03.144-.018-.028.004-.05.007-.102.011-.152.016a3.84 3.84 0 01-.822-.022c.173.022.003-.002-.027-.008a3.827 3.827 0 01-.764-.228c-.156-.064.127.06-.026-.01a3.958 3.958 0 01-.793-.502c.132.106.002 0-.021-.02a4.259 4.259 0 01-.606-.666c.108.145-.023-.039-.042-.067a4.469 4.469 0 01-.298-.537 3.602 3.602 0 01-.063-.142c-.013-.028-.076-.194-.013-.027a4.586 4.586 0 01-.247-.976c.027.185.002.002-.002-.031a4.668 4.668 0 010-.883c.003-.033.027-.217.002-.031a4.645 4.645 0 01.195-.829c.016-.05.034-.099.053-.148-.062.168 0 .003.012-.027a4.483 4.483 0 01.28-.548l.08-.13c.02-.029.15-.214.043-.068a4.313 4.313 0 01.606-.666c.022-.02.153-.127.02-.02a4.114 4.114 0 01.794-.5c.152-.074-.13.055.026-.011a3.856 3.856 0 01.764-.229c.03-.006.2-.032.027-.007a3.85 3.85 0 01.974-.007c.172.02-.142-.023.028.005a3.764 3.764 0 01.768.22c.027.01.182.078.027.008a3.863 3.863 0 01.64.372c.041.028.08.058.12.088.024.018.154.126.023.016a4.23 4.23 0 01.62.65c.019.025.12.165.019.023a4.604 4.604 0 01.383.663c.022.046.042.094.063.141.013.03.075.194.012.027a4.533 4.533 0 01.24.923c.028.182-.017-.154.004.03a4.718 4.718 0 01.026.496c.002.38.293.696.647.696.352 0 .65-.316.648-.696-.011-1.951-1.08-3.801-2.747-4.61-1.742-.845-3.768-.497-5.188.874C3.43 2.651 2.93 4.83 3.517 6.69c.285.9.805 1.72 1.498 2.315a4.7 4.7 0 002.573 1.123c1.317.15 2.642-.383 3.616-1.324.974-.941 1.517-2.337 1.525-3.736.002-.379-.296-.695-.648-.695-.354 0-.645.316-.647.695z" fill="#2969FF"/><path d="M12.675 10.025c.09.062.18.127.267.194.017.013.159.13.04.03l.124.11a5.231 5.231 0 01.707.784c-.094-.127.016.025.028.043a5.557 5.557 0 01.512.952c.075.178-.049-.132.02.05a5.598 5.598 0 01.281 1.08c.004.024.03.223.01.054a5.75 5.75 0 01.037.549c.002.063.002.126.002.19v3.547c0 .045-.002.067-.004.112-.008.185.027-.148-.003.032a1.698 1.698 0 01-.036.157c-.008.03-.068.198-.003.033a1.73 1.73 0 01-.143.274c-.09.147.089-.11-.018.024-.042.052-.089.1-.137.147-.12.118.112-.082-.022.02-.04.03-.082.056-.124.082a1.51 1.51 0 01-.131.07c.15-.073 0-.006-.03.004-.049.016-.098.027-.146.038-.167.039.142-.011-.03.004a1.25 1.25 0 01-.108.003H2.226c-.046 0-.058 0-.104-.003-.172-.01.138.029-.03-.004a1.452 1.452 0 01-.24-.072 1.558 1.558 0 01-.232-.153c.133.1.006-.001-.017-.024a1.662 1.662 0 01-.102-.112c-.11-.13.077.12-.018-.024a1.72 1.72 0 01-.077-.133 1.984 1.984 0 01-.065-.141c.071.166-.007-.048-.017-.085a1.812 1.812 0 01-.031-.158c.03.18.005.001.003-.034v-3.481c0-.187 0-.373.01-.56l.015-.182c.002-.024.027-.225.005-.056a5.746 5.746 0 01.261-1.092c.019-.055.04-.11.06-.164-.057.152.013-.027.022-.048a5.585 5.585 0 01.522-.946c.106-.156-.082.109.03-.042l.104-.133a5.314 5.314 0 01.571-.607c.021-.018.201-.17.08-.07.1-.083.203-.159.308-.232a.736.736 0 00.232-.952c-.171-.315-.59-.457-.886-.25C1.01 9.984 0 11.918 0 14.004v3.077c0 .582.013 1.117.265 1.658A2.22 2.22 0 002.245 20h11.52c.94 0 1.76-.638 2.095-1.57.169-.47.138-.977.138-1.47v-2.965a6.52 6.52 0 00-.774-3.075 6.015 6.015 0 00-1.896-2.096c-.297-.205-.713-.068-.886.25a.735.735 0 00.233.951z" fill="#2969FF"/></svg>