<svg width="20" height="13" fill="none" xmlns="http://www.w3.org/2000/svg"><path fill="#F5F5F5" d="M0 0h20v13H0z"/><mask id="a" fill="#fff"><path d="M10.186.022c.16.045.253.068.43.267l4 5.008 4-5.008s.233-.267.566-.287c.417-.025.797.315.818.72v11.556c-.02.387-.354.704-.77.722H3.847c-.598-.027-.994-.747-.581-1.195a.792.792 0 01.436-.236c.064-.012.08-.01.145-.013h14.616V2.889L15.23 6.933a.838.838 0 01-1.231 0l-4-5.007-4 5.007s-.747.549-1.23 0L1.537 2.89v9.389s-.015.342-.265.546c-.295.239-.79.22-1.06-.048a.713.713 0 01-.2-.361c-.011-.06-.01-.076-.013-.137V.722C.03.16.81-.216 1.285.187c.049.041.058.055.1.102l4 5.008 4-5.008.047-.054C9.48.19 9.49.178 9.544.14A.803.803 0 019.962 0c.143-.007.178.012.224.02z"/></mask><path d="M10.186.022c.16.045.253.068.43.267l4 5.008 4-5.008s.233-.267.566-.287c.417-.025.797.315.818.72v11.556c-.02.387-.354.704-.77.722H3.847c-.598-.027-.994-.747-.581-1.195a.792.792 0 01.436-.236c.064-.012.08-.01.145-.013h14.616V2.889L15.23 6.933a.838.838 0 01-1.231 0l-4-5.007-4 5.007s-.747.549-1.23 0L1.537 2.89v9.389s-.015.342-.265.546c-.295.239-.79.22-1.06-.048a.713.713 0 01-.2-.361c-.011-.06-.01-.076-.013-.137V.722C.03.16.81-.216 1.285.187c.049.041.058.055.1.102l4 5.008 4-5.008.047-.054C9.48.19 9.49.178 9.544.14A.803.803 0 019.962 0c.143-.007.178.012.224.02z" stroke="#2969FF" stroke-width="2" mask="url(#a)"/></svg>