<svg width="16" height="16" fill="none" xmlns="http://www.w3.org/2000/svg"><path d="M11.2 5.6a.8.8 0 11-1.6 0 .8.8 0 011.6 0z" fill="#2969FF"/><path fill-rule="evenodd" clip-rule="evenodd" d="M6.07 1.699c2.264-2.265 5.967-2.265 8.231 0 2.255 2.254 2.274 5.955.003 8.137-1.455 1.549-3.618 2.053-5.559 1.544a.424.424 0 00-.425.115L3.995 15.82a.615.615 0 01-.435.18H.615A.615.615 0 010 15.385V12.44c0-.163.065-.32.18-.435L4.505 7.68a.183.183 0 00.055-.118.853.853 0 00-.03-.303c-.517-1.871.007-4.028 1.54-5.56zm7.361.87a4.605 4.605 0 00-6.491 0c-1.226 1.226-1.623 2.93-1.223 4.37l.004.015c.11.437.164 1.087-.346 1.596l-4.144 4.145v2.074h2.074l4.145-4.145a1.654 1.654 0 011.596-.437l.008.001c1.549.408 3.242-.004 4.362-1.205a.608.608 0 01.025-.025c1.765-1.684 1.78-4.6-.01-6.39z" fill="#2969FF"/></svg>