<svg width="18" height="18" fill="none" xmlns="http://www.w3.org/2000/svg"><path d="M9 0a9 9 0 100 18A9 9 0 009 0zm0 16.5a7.5 7.5 0 110-15 7.5 7.5 0 010 15z" fill="#2969FF"/><path d="M9.007 7.363a.68.68 0 00-.485.204.704.704 0 00-.2.493v4.743c0 .185.072.362.2.493a.68.68 0 00.97 0 .705.705 0 00.2-.493V8.06a.704.704 0 00-.2-.493.68.68 0 00-.485-.204zm0-2.86a.72.72 0 00-.492.222.746.746 0 00-.207.504v.112a.665.665 0 00.207.484.642.642 0 00.492.171.707.707 0 00.477-.212.731.731 0 00.208-.485v-.167a.637.637 0 00-.204-.47.614.614 0 00-.481-.158z" fill="#2969FF"/></svg>