<svg width="16" height="16" fill="none" xmlns="http://www.w3.org/2000/svg"><path fill-rule="evenodd" clip-rule="evenodd" d="M10.689.73a2.49 2.49 0 013.521 0l1.06 1.06a2.49 2.49 0 010 3.521l-9.959 9.96a2.49 2.49 0 01-1.76.729H.679A.68.68 0 010 15.32v-2.87c0-.661.262-1.294.73-1.761l9.959-9.96zm2.56.96a1.132 1.132 0 00-1.6 0L9.79 3.55l2.66 2.662 1.86-1.862a1.132 1.132 0 000-1.6l-1.06-1.06zm-1.76 5.482L8.828 4.511 1.69 11.649c-.213.212-.332.5-.332.8v2.193h2.193c.3 0 .588-.12.8-.332l7.138-7.138z" fill="#2969FF"/></svg>