<svg width="20" height="13" fill="none" xmlns="http://www.w3.org/2000/svg"><path d="M18.571 6.5c-1.13-1.775-2.548-3.103-4.252-3.984.454.783.681 1.63.681 2.54 0 1.391-.49 2.582-1.468 3.571-.978.99-2.155 1.484-3.532 1.484-1.376 0-2.554-.495-3.532-1.484C5.489 7.637 5 6.447 5 5.056c0-.91.227-1.757.68-2.54-1.703.88-3.12 2.209-4.251 3.984.99 1.542 2.23 2.77 3.722 3.684A9.114 9.114 0 0010 11.556a9.113 9.113 0 004.85-1.371c1.49-.915 2.731-2.144 3.72-3.685zm-8.035-4.333a.526.526 0 00-.156-.384.514.514 0 00-.38-.158c-.93 0-1.728.337-2.394 1.01a3.32 3.32 0 00-.999 2.42c0 .151.052.279.156.384a.513.513 0 00.38.158.514.514 0 00.38-.158.525.525 0 00.156-.383c0-.647.227-1.2.68-1.66A2.228 2.228 0 0110 2.708a.514.514 0 00.38-.158.526.526 0 00.156-.383zM20 6.5c0 .256-.074.515-.223.779a11.904 11.904 0 01-4.202 4.158C13.815 12.48 11.957 13 10 13c-1.957 0-3.815-.523-5.575-1.569A11.98 11.98 0 01.223 7.28 1.575 1.575 0 010 6.5c0-.256.074-.515.223-.779A11.98 11.98 0 014.425 1.57C6.185.523 8.043 0 10 0c1.957 0 3.815.523 5.575 1.569a11.981 11.981 0 014.202 4.152c.149.264.223.523.223.779z" fill="#2969FF"/></svg>