<svg width="14" height="18" fill="none" xmlns="http://www.w3.org/2000/svg"><path d="M9.986 4.71a4.999 4.999 0 01-.022.432c-.016.16.019-.132-.004.027a4.15 4.15 0 01-.135.586c-.013.044-.028.087-.043.13-.008.026-.063.17-.006.026a3.935 3.935 0 01-.398.747c-.084.124.075-.1-.014.02l-.081.104a3.73 3.73 0 01-.356.382c-.031.03-.064.058-.096.087a3.551 3.551 0 01-.714.443c.134-.064 0-.003-.024.007a3.397 3.397 0 01-.667.19c-.148.027.124-.015-.025.004a3.343 3.343 0 01-.847-.006c.15.02.003-.001-.024-.006a3.328 3.328 0 01-.664-.199c-.135-.055.11.053-.022-.01a3.438 3.438 0 01-.69-.435c.115.092.002 0-.018-.017a3.703 3.703 0 01-.447-.474l-.08-.105c.094.126-.02-.034-.037-.059a3.886 3.886 0 01-.259-.467c-.02-.04-.037-.081-.055-.123-.01-.025-.066-.168-.01-.023a3.99 3.99 0 01-.215-.85c.023.161 0 .002-.002-.026a4.08 4.08 0 010-.768c.002-.029.023-.188.002-.027.006-.047.014-.093.022-.14.033-.197.085-.391.147-.58.014-.044.03-.087.046-.13-.054.146 0 .003.01-.023a3.904 3.904 0 01.244-.477l.07-.113c.016-.024.13-.186.037-.058a3.754 3.754 0 01.527-.58c.02-.017.133-.11.018-.017a3.58 3.58 0 01.69-.435c.132-.065-.113.048.022-.01a3.352 3.352 0 01.536-.172l.128-.027c.027-.005.174-.027.024-.006a3.348 3.348 0 01.847-.006c.15.017-.123-.02.025.005a3.275 3.275 0 01.667.19c.024.01.159.069.024.007a3.355 3.355 0 01.66.401c.021.016.135.11.021.014a3.682 3.682 0 01.54.566c.015.02.102.142.015.019a3.895 3.895 0 01.388.7c.011.024.066.168.01.023a3.975 3.975 0 01.209.802c.025.159-.014-.134.004.027a4.21 4.21 0 01.022.43c.002.33.255.606.563.606.306 0 .565-.275.563-.605-.01-1.697-.939-3.306-2.388-4.01C7.21-.032 5.447.27 4.213 1.463 3.026 2.609 2.59 4.504 3.102 6.121c.247.783.7 1.496 1.303 2.013.653.56 1.407.881 2.237.976 1.145.13 2.298-.332 3.144-1.15.848-.82 1.32-2.033 1.326-3.25.002-.33-.257-.604-.563-.604-.308 0-.561.275-.563.605z" fill="#F8FAFC"/><path d="M11.065 9.022c.079.054.156.11.232.168.015.012.139.114.035.027a4.538 4.538 0 01.723.777c-.082-.11.013.021.024.037a4.824 4.824 0 01.445.828c.066.154-.042-.115.017.043a4.918 4.918 0 01.245.94c.004.02.027.194.009.047a5.18 5.18 0 01.032.477c.002.055.001.11.001.165v3.085c0 .039 0 .058-.003.097-.007.16.024-.129-.002.028-.008.046-.02.09-.032.136-.007.027-.059.172-.002.029a1.508 1.508 0 01-.124.238c-.079.128.077-.095-.016.02a1.46 1.46 0 01-.12.129c-.104.103.098-.072-.018.017a1.395 1.395 0 01-.222.133c.13-.064-.001-.006-.027.003a1.306 1.306 0 01-.127.033c-.145.034.124-.01-.026.003a1.085 1.085 0 01-.093.003H1.979c-.04 0-.05 0-.09-.003-.15-.008.12.026-.026-.003a1.332 1.332 0 01-.209-.063 1.357 1.357 0 01-.202-.133c.116.088.005 0-.015-.02a1.621 1.621 0 01-.088-.098c-.096-.113.067.104-.016-.02a1.512 1.512 0 01-.124-.239c.062.145-.006-.042-.014-.074a1.562 1.562 0 01-.027-.138c.026.156.004.002.003-.03l-.001-.06v-2.966c0-.162 0-.324.01-.486l.012-.16c.002-.02.024-.195.005-.048a5.011 5.011 0 01.227-.95 4.06 4.06 0 01.052-.142c-.05.133.01-.024.018-.042a4.84 4.84 0 01.455-.823c.092-.135-.071.095.026-.036.03-.04.06-.077.09-.115a4.608 4.608 0 01.497-.528c.018-.017.175-.149.069-.062a4.38 4.38 0 01.268-.201.64.64 0 00.202-.828c-.15-.274-.513-.397-.77-.217C.922 8.985.043 10.667.043 12.48v2.676c0 .506.012.971.23 1.442a1.93 1.93 0 001.722 1.096h10.017c.819 0 1.531-.554 1.823-1.366.146-.407.12-.849.12-1.277v-2.579a5.67 5.67 0 00-.673-2.674 5.23 5.23 0 00-1.649-1.822c-.259-.178-.62-.06-.77.217a.64.64 0 00.202.828z" fill="#F8FAFC"/></svg>