<svg width="16" height="14" fill="none" xmlns="http://www.w3.org/2000/svg"><path d="M12.59 1.273v.5h1.228c.466 0 .902.162 1.214.435.31.271.468.623.468.974v8.909c0 .35-.159.703-.468.974a1.85 1.85 0 01-1.214.435H2.182a1.85 1.85 0 01-1.214-.435C.658 12.794.5 12.44.5 12.09V3.18c0-.35.159-.702.468-.973a1.85 1.85 0 011.214-.435h1.227V.636c0-.013.005-.041.042-.073A.285.285 0 013.636.5a.28.28 0 01.185.063l.327-.374-.327.374c.037.032.043.06.043.073v1.137h8.272V.636c0-.013.006-.041.043-.073A.285.285 0 0112.364.5a.28.28 0 01.185.063l.329-.377-.33.377c.038.032.043.06.043.073v.637zM1.456 5.863h-.5v6.228c0 .325.147.62.383.826.234.205.538.31.844.31h11.636c.306 0 .61-.105.844-.31.236-.206.383-.502.383-.826V5.864H1.456zM3.41 2.545v-.5H2.182c-.306 0-.61.106-.844.31l.33.377-.33-.376a1.099 1.099 0 00-.383.826V5.59h14.09V3.18c0-.324-.147-.62-.383-.825l-.33.376.33-.376a1.283 1.283 0 00-.844-.31h-1.227v1.136c0 .013-.005.041-.042.074l.306.35-.306-.35a.284.284 0 01-.185.062.285.285 0 01-.185-.062c-.037-.033-.043-.061-.043-.074V2.045H3.864v1.137c0 .013-.006.041-.043.074l.306.348-.306-.348a.285.285 0 01-.185.062.285.285 0 01-.185-.062c-.037-.033-.042-.061-.042-.074v-.637z" stroke="#2969FF"/></svg>